<svg width="871" height="439" viewBox="0 0 871 439" fill="none" xmlns="http://www.w3.org/2000/svg">
<path d="M294 239.179V0.526306L510.375 119.853V199.403L366.125 119.853V278.954L294 239.179Z" fill="#00B0FF"/>
<path d="M510.375 119.853L726.75 0.526306V239.179L582.5 318.73L510.375 278.954L654.625 199.403V119.853L510.375 199.403V119.853Z" fill="#0081CB"/>
<path d="M510.375 278.954V358.505L654.625 438.056V358.505L510.375 278.954Z" fill="#00B0FF"/>
<path d="M654.625 438.056L871 318.73V159.628L798.875 199.403V278.954L654.625 358.505V438.056ZM798.875 119.853V40.3017L871 0.526306V80.0772L798.875 119.853Z" fill="#0081CB"/>
<g clip-path="url(#clip0_1_11)">
<path d="M56.481 55.32C55.515 27.58 77.128 2 106.342 2H405.695C434.909 2 456.522 27.58 455.556 55.32C454.628 81.967 455.833 116.485 464.52 144.63C473.235 172.862 487.931 190.707 512 193V219C487.931 221.293 473.235 239.138 464.52 267.37C455.833 295.515 454.628 330.033 455.556 356.681C456.522 384.42 434.909 410 405.695 410H106.342C77.128 410 55.515 384.42 56.482 356.681C57.409 330.033 56.204 295.515 47.516 267.37C38.802 239.138 24.07 221.293 0 219V193C24.069 190.707 38.802 172.862 47.516 144.63C56.204 116.485 57.409 81.967 56.481 55.32Z" fill="url(#paint0_linear_1_11)"/>
<g filter="url(#filter0_d_1_11)">
<path d="M267.103 314.457C314.4 314.457 342.901 291.299 342.901 253.102C342.901 224.229 322.565 203.326 292.369 200.017V198.814C314.554 195.205 331.963 174.603 331.963 151.595C331.963 118.812 306.081 97.457 266.641 97.457H177.901V314.457H267.103ZM212.411 124.977H258.322C283.28 124.977 297.453 136.105 297.453 156.256C297.453 177.761 280.969 189.791 251.081 189.791H212.411V124.977ZM212.411 286.938V215.507H258.013C290.674 215.507 307.621 227.537 307.621 250.997C307.621 274.456 291.137 286.938 260.016 286.938H212.411Z" fill="url(#paint1_linear_1_11)"/>
<path d="M267.103 314.457C314.4 314.457 342.901 291.299 342.901 253.102C342.901 224.229 322.565 203.326 292.369 200.017V198.814C314.554 195.205 331.963 174.603 331.963 151.595C331.963 118.812 306.081 97.457 266.641 97.457H177.901V314.457H267.103ZM212.411 124.977H258.322C283.28 124.977 297.453 136.105 297.453 156.256C297.453 177.761 280.969 189.791 251.081 189.791H212.411V124.977ZM212.411 286.938V215.507H258.013C290.674 215.507 307.621 227.537 307.621 250.997C307.621 274.456 291.137 286.938 260.016 286.938H212.411Z" stroke="white"/>
</g>
</g>
<defs>
<filter id="filter0_d_1_11" x="161.401" y="84.957" width="198" height="250" filterUnits="userSpaceOnUse" color-interpolation-filters="sRGB">
<feFlood flood-opacity="0" result="BackgroundImageFix"/>
<feColorMatrix in="SourceAlpha" type="matrix" values="0 0 0 0 0 0 0 0 0 0 0 0 0 0 0 0 0 0 127 0" result="hardAlpha"/>
<feOffset dy="4"/>
<feGaussianBlur stdDeviation="8"/>
<feColorMatrix type="matrix" values="0 0 0 0 0 0 0 0 0 0 0 0 0 0 0 0 0 0 0.15 0"/>
<feBlend mode="normal" in2="BackgroundImageFix" result="effect1_dropShadow_1_11"/>
<feBlend mode="normal" in="SourceGraphic" in2="effect1_dropShadow_1_11" result="shape"/>
</filter>
<linearGradient id="paint0_linear_1_11" x1="76.079" y1="12.798" x2="523.48" y2="367.945" gradientUnits="userSpaceOnUse">
<stop stop-color="#9013FE"/>
<stop offset="1" stop-color="#6610F2"/>
</linearGradient>
<linearGradient id="paint1_linear_1_11" x1="193.508" y1="111.74" x2="293.514" y2="280.872" gradientUnits="userSpaceOnUse">
<stop stop-color="white"/>
<stop offset="1" stop-color="#F1E5FC"/>
</linearGradient>
<clipPath id="clip0_1_11">
<rect width="512" height="408" fill="white" transform="translate(0 2)"/>
</clipPath>
</defs>
</svg>
