<svg width="198" height="204" viewBox="0 0 198 204" fill="none" xmlns="http://www.w3.org/2000/svg">
<path d="M99 122.184C110.046 122.184 119 113.163 119 102.036C119 90.9082 110.046 81.8875 99 81.8875C87.9543 81.8875 79 90.9082 79 102.036C79 113.163 87.9543 122.184 99 122.184Z" fill="#07B6D5"/>
<path d="M98.8599 144.015C151.25 144.015 193.72 125.224 193.72 102.044C193.72 78.8645 151.25 60.0737 98.8599 60.0737C46.4702 60.0737 4 78.8645 4 102.044C4 125.224 46.4702 144.015 98.8599 144.015Z" stroke="#07B6D5" stroke-width="8"/>
<path d="M61.8921 123.03C88.0869 167.639 125.873 194.406 146.29 182.816C166.707 171.227 162.023 125.668 135.828 81.0592C109.633 36.45 71.8469 9.68251 51.4301 21.2723C31.0133 32.8621 35.6972 78.4204 61.8921 123.03Z" stroke="#07B6D5" stroke-width="8"/>
<path d="M61.8919 81.0585C35.6971 125.668 31.0131 171.226 51.43 182.816C71.8468 194.406 109.633 167.638 135.828 123.029C162.023 78.4197 166.707 32.8614 146.29 21.2716C125.873 9.68181 88.0868 36.4493 61.8919 81.0585Z" stroke="#07B6D5" stroke-width="8"/>
<circle cx="141.424" cy="160.119" r="43.881" fill="black"/>
<path d="M137.324 106.103C137.115 106.122 136.451 106.189 135.854 106.237C122.077 107.49 109.172 114.994 100.998 126.527C96.447 132.939 93.5361 140.213 92.4362 147.917C92.0474 150.607 92 151.401 92 155.048C92 158.694 92.0474 159.489 92.4362 162.178C95.0721 180.563 108.034 196.011 125.613 201.734C128.761 202.758 132.08 203.457 135.854 203.878C137.324 204.041 143.676 204.041 145.146 203.878C151.66 203.151 157.179 201.524 162.621 198.719C163.456 198.289 163.617 198.174 163.503 198.078C163.427 198.021 159.872 193.207 155.605 187.387L147.848 176.812L138.13 162.293C132.782 154.311 128.382 147.783 128.344 147.783C128.306 147.774 128.268 154.225 128.249 162.101C128.221 175.893 128.211 176.448 128.041 176.773C127.794 177.242 127.605 177.434 127.206 177.644C126.903 177.797 126.637 177.826 125.206 177.826H123.565L123.129 177.549C122.845 177.367 122.636 177.128 122.494 176.85L122.295 176.419L122.314 157.23L122.342 138.031L122.636 137.657C122.788 137.457 123.11 137.198 123.338 137.074C123.726 136.882 123.878 136.863 125.519 136.863C127.453 136.863 127.775 136.94 128.278 137.495C128.42 137.648 133.683 145.649 139.978 155.287C146.274 164.925 154.884 178.085 159.113 184.545L166.793 196.288L167.182 196.03C170.624 193.771 174.265 190.555 177.148 187.206C183.282 180.094 187.236 171.423 188.564 162.178C188.953 159.489 189 158.694 189 155.048C189 151.401 188.953 150.607 188.564 147.917C185.928 129.532 172.966 114.085 155.387 108.361C152.286 107.347 148.986 106.648 145.288 106.227C144.378 106.131 138.111 106.026 137.324 106.103ZM157.179 135.715C157.634 135.944 158.004 136.385 158.136 136.844C158.212 137.093 158.231 142.414 158.212 154.406L158.184 171.615L155.178 166.963L152.163 162.312V149.803C152.163 141.716 152.201 137.169 152.258 136.949C152.409 136.413 152.741 135.992 153.196 135.743C153.585 135.542 153.727 135.523 155.216 135.523C156.619 135.523 156.866 135.542 157.179 135.715Z" fill="white"/>
</svg>
