<svg width="406" height="406" viewBox="0 0 406 406" fill="none" xmlns="http://www.w3.org/2000/svg">
<circle cx="203" cy="203" r="203" fill="#15273F"/>
<g clip-path="url(#clip0_758_17)">
<path d="M333 274.37C329.216 275.801 325.039 275.798 321.257 274.361C317.475 272.924 314.35 270.153 312.471 266.57L275.096 214.884L269.679 207.658L226.313 266.635C224.547 270.068 221.591 272.74 217.999 274.151C214.406 275.563 210.422 275.617 206.792 274.305L262.67 199.338L210.692 131.619C214.429 130.272 218.516 130.255 222.265 131.569C226.015 132.883 229.196 135.449 231.275 138.834L270.015 191.159L308.972 139.051C310.751 135.679 313.708 133.079 317.279 131.745C320.85 130.411 324.787 130.436 328.342 131.814L308.17 158.583L280.848 194.149C280.089 194.826 279.482 195.656 279.067 196.584C278.651 197.511 278.436 198.517 278.436 199.533C278.436 200.55 278.651 201.555 279.067 202.483C279.482 203.411 280.089 204.241 280.848 204.918L332.892 274.381L333 274.37ZM73.0216 198.407L77.5716 175.928C90.0732 131.478 141.033 112.986 176.09 140.503C196.619 156.633 201.743 179.47 200.736 205.21H85.0899C83.2157 251.176 116.387 278.931 158.8 264.75C165.675 262.275 171.83 258.134 176.711 252.696C181.593 247.258 185.05 240.695 186.772 233.593C189.014 226.378 192.708 225.143 199.49 227.223C198.36 236.024 195.249 244.454 190.391 251.879C185.533 259.304 179.054 265.531 171.442 270.091C158.869 276.968 144.444 279.694 130.228 277.879C116.013 276.063 102.735 269.8 92.2941 259.983C81.9702 248.363 75.7307 233.685 74.5274 218.188C74.5274 215.643 73.6607 213.259 73.0757 210.973C73.023 206.788 72.9977 202.603 72.9999 198.418L73.0216 198.407ZM85.2307 195.308H189.816C189.166 161.985 168.138 138.347 140.091 138.13C108.869 137.697 86.5307 160.815 85.1549 195.157L85.2307 195.308Z" fill="#010A16"/>
</g>
<defs>
<clipPath id="clip0_758_17">
<rect width="260" height="260" fill="white" transform="translate(73 73)"/>
</clipPath>
</defs>
</svg>
