<svg width="979" height="979" viewBox="0 0 979 979" fill="none" xmlns="http://www.w3.org/2000/svg">
<circle cx="489.5" cy="489.5" r="489" fill="#010A16" stroke="white"/>
<path d="M239 656.667C251.305 658.41 263.053 662.943 273.355 669.917C283.657 676.893 292.242 686.127 298.46 696.927C303.744 706.54 310.867 715.013 319.421 721.857C327.976 728.7 337.793 733.783 348.31 736.81C358.826 739.84 369.835 740.753 380.704 739.5C391.573 738.25 402.089 734.857 411.649 729.517" fill="#010A16"/>
<path d="M239 656.667C251.305 658.41 263.053 662.943 273.355 669.917C283.657 676.893 292.242 686.127 298.46 696.927C303.744 706.54 310.867 715.013 319.421 721.857C327.976 728.7 337.793 733.783 348.31 736.81C358.826 739.84 369.835 740.753 380.704 739.5C391.573 738.25 402.089 734.857 411.649 729.517" stroke="white" stroke-width="66.6667" stroke-linecap="round" stroke-linejoin="round"/>
<mask id="path-4-inside-1_761_23" fill="white">
<path d="M415.394 790V704.69L416.517 644.063C417.865 625.203 425.213 607.427 437.302 593.667C437.479 593.463 437.657 593.263 437.837 593.063C438.303 592.543 437.996 591.703 437.302 591.617C356.518 581.533 272.35 547.423 272.35 398.916C271.823 362.34 283.757 326.883 305.812 299.072C306.584 298.099 307.368 297.135 308.164 296.182C309.2 294.94 309.539 293.257 309.065 291.711C309.036 291.618 309.007 291.524 308.978 291.43C308.44 289.663 307.935 287.889 307.463 286.107C299.355 255.491 301.098 222.788 312.509 193.273C312.593 193.055 312.678 192.837 312.763 192.619C313.189 191.533 314.084 190.703 315.233 190.498C322.396 189.22 351.345 187.511 406.766 225.782C408.491 226.973 410.241 228.203 412.018 229.473C413.3 230.389 414.931 230.67 416.448 230.239L416.591 230.198C419.566 229.352 422.549 228.55 425.539 227.79C478.22 214.409 533.113 214.409 585.793 227.79C588.63 228.51 591.457 229.269 594.28 230.066L594.463 230.119C596.247 230.624 598.163 230.294 599.673 229.218C601.327 228.038 602.957 226.893 604.567 225.782C659.857 187.592 688.647 189.213 695.843 190.49C697.013 190.697 697.927 191.543 698.367 192.649C698.423 192.791 698.477 192.933 698.533 193.075C710.137 222.604 711.98 255.405 703.867 286.107C703.383 287.937 702.863 289.76 702.31 291.574C701.81 293.206 702.17 294.981 703.26 296.292L703.363 296.415C704.093 297.292 704.813 298.178 705.52 299.072C727.577 326.883 739.51 362.34 738.983 398.916C738.983 548.233 654.217 581.45 573.047 590.5C572.577 590.55 572.367 591.113 572.683 591.463C572.803 591.597 572.927 591.73 573.047 591.863C581.237 600.987 587.59 611.813 591.703 623.677C596.003 636.08 597.753 649.323 596.837 662.513V790"/>
</mask>
<path d="M415.394 790V704.69L416.517 644.063C417.865 625.203 425.213 607.427 437.302 593.667C437.479 593.463 437.657 593.263 437.837 593.063C438.303 592.543 437.996 591.703 437.302 591.617C356.518 581.533 272.35 547.423 272.35 398.916C271.823 362.34 283.757 326.883 305.812 299.072C306.584 298.099 307.368 297.135 308.164 296.182C309.2 294.94 309.539 293.257 309.065 291.711C309.036 291.618 309.007 291.524 308.978 291.43C308.44 289.663 307.935 287.889 307.463 286.107C299.355 255.491 301.098 222.788 312.509 193.273C312.593 193.055 312.678 192.837 312.763 192.619C313.189 191.533 314.084 190.703 315.233 190.498C322.396 189.22 351.345 187.511 406.766 225.782C408.491 226.973 410.241 228.203 412.018 229.473C413.3 230.389 414.931 230.67 416.448 230.239L416.591 230.198C419.566 229.352 422.549 228.55 425.539 227.79C478.22 214.409 533.113 214.409 585.793 227.79C588.63 228.51 591.457 229.269 594.28 230.066L594.463 230.119C596.247 230.624 598.163 230.294 599.673 229.218C601.327 228.038 602.957 226.893 604.567 225.782C659.857 187.592 688.647 189.213 695.843 190.49C697.013 190.697 697.927 191.543 698.367 192.649C698.423 192.791 698.477 192.933 698.533 193.075C710.137 222.604 711.98 255.405 703.867 286.107C703.383 287.937 702.863 289.76 702.31 291.574C701.81 293.206 702.17 294.981 703.26 296.292L703.363 296.415C704.093 297.292 704.813 298.178 705.52 299.072C727.577 326.883 739.51 362.34 738.983 398.916C738.983 548.233 654.217 581.45 573.047 590.5C572.577 590.55 572.367 591.113 572.683 591.463C572.803 591.597 572.927 591.73 573.047 591.863C581.237 600.987 587.59 611.813 591.703 623.677C596.003 636.08 597.753 649.323 596.837 662.513V790" fill="#010A16"/>
<path d="M222.724 790C222.724 896.409 308.986 982.67 415.394 982.67C521.803 982.67 608.064 896.409 608.064 790H415.394H222.724ZM415.394 704.69L222.757 701.124C222.735 702.312 222.724 703.501 222.724 704.69L415.394 704.69ZM416.517 644.063L224.337 630.324C224.095 633.711 223.942 637.103 223.88 640.497L416.517 644.063ZM437.302 593.667L582.044 720.834C582.238 720.613 582.432 720.391 582.625 720.169L437.302 593.667ZM437.837 593.063L294.443 464.377C294.425 464.398 294.407 464.418 294.389 464.438L437.837 593.063ZM272.35 398.916H465.02C465.02 397.992 465.013 397.067 465 396.142L272.35 398.916ZM308.164 296.182L456.054 419.673C456.064 419.662 456.073 419.651 456.083 419.639L308.164 296.182ZM309.065 291.711L493.249 235.161C493.204 235.017 493.16 234.872 493.115 234.728L309.065 291.711ZM312.509 193.273L492.217 262.749C492.242 262.682 492.268 262.615 492.294 262.548L312.509 193.273ZM416.448 230.239L469.19 415.549C469.268 415.527 469.346 415.505 469.425 415.482L416.448 230.239ZM416.591 230.198L363.91 44.8697C363.812 44.8978 363.713 44.9259 363.615 44.9541L416.591 230.198ZM594.28 230.066L647.151 44.7926C646.982 44.7443 646.813 44.6963 646.644 44.6485L594.28 230.066ZM594.463 230.119L541.592 415.392C541.707 415.425 541.821 415.458 541.936 415.49L594.463 230.119ZM599.673 229.218L711.506 386.11C711.531 386.092 711.555 386.075 711.58 386.057L599.673 229.218ZM604.567 225.782L713.995 384.36C714.019 384.344 714.043 384.328 714.066 384.311L604.567 225.782ZM698.367 192.649L519.343 263.87C519.349 263.885 519.356 263.9 519.362 263.915L698.367 192.649ZM698.533 193.075L877.855 122.61C877.75 122.343 877.644 122.075 877.538 121.809L698.533 193.075ZM702.31 291.574L886.525 348.024C886.55 347.942 886.575 347.861 886.6 347.779L702.31 291.574ZM703.26 296.292L555.108 419.469C555.27 419.665 555.433 419.86 555.597 420.055L703.26 296.292ZM703.363 296.415L851.469 173.181C851.322 173.005 851.174 172.828 851.027 172.652L703.363 296.415ZM705.52 299.072L554.39 418.577C554.448 418.65 554.505 418.722 554.563 418.795L705.52 299.072ZM738.983 398.916L546.333 396.142C546.32 397.067 546.313 397.992 546.313 398.916L738.983 398.916ZM573.047 590.5L593.428 782.089C593.751 782.055 594.074 782.019 594.396 781.984L573.047 590.5ZM572.683 591.463L715.894 462.574C715.781 462.449 715.668 462.323 715.555 462.198L572.683 591.463ZM573.047 591.863L716.421 463.156C716.366 463.095 716.312 463.035 716.257 462.974L573.047 591.863ZM591.703 623.677L773.744 560.567L773.741 560.559L591.703 623.677ZM596.837 662.513L404.63 649.156C404.321 653.601 404.167 658.057 404.167 662.513H596.837ZM404.167 790C404.167 896.409 490.428 982.67 596.837 982.67C703.245 982.67 789.507 896.409 789.507 790H596.837H404.167ZM415.394 790H608.064V704.69H415.394H222.724V790H415.394ZM415.394 704.69L608.031 708.256L609.154 647.629L416.517 644.063L223.88 640.497L222.757 701.124L415.394 704.69ZM416.517 644.063L608.696 657.803C607.136 679.632 598.57 702.025 582.044 720.834L437.302 593.667L292.561 466.499C251.856 512.829 228.594 570.775 224.337 630.324L416.517 644.063ZM437.302 593.667L582.625 720.169C581.912 720.989 581.382 721.58 581.285 721.688L437.837 593.063L294.389 464.438C293.933 464.947 293.047 465.938 291.979 467.164L437.302 593.667ZM437.837 593.063L581.23 721.749C683.794 607.464 618.906 420.138 461.189 400.433L437.302 591.617L413.416 782.8C257.086 763.268 192.813 577.623 294.443 464.377L437.837 593.063ZM437.302 591.617L461.166 400.43C455.564 399.731 451.292 398.989 448.07 398.286C444.852 397.585 443.202 397.034 442.757 396.874C442.346 396.726 443.474 397.094 445.616 398.325C447.832 399.598 450.897 401.662 454.241 404.707C455.888 406.207 457.492 407.844 459.01 409.597C460.53 411.352 461.87 413.116 463.027 414.833C465.402 418.358 466.579 421.051 467.011 422.196C467.411 423.256 466.912 422.293 466.31 418.579C465.7 414.815 465.02 408.445 465.02 398.916H272.35H79.68C79.68 510.984 112.862 615.023 194.823 689.644C270.1 758.18 359.514 776.072 413.439 782.803L437.302 591.617ZM272.35 398.916L465 396.142C465.096 402.793 463.049 410.877 456.772 418.791L305.812 299.072L154.852 179.352C104.464 242.888 78.5508 321.888 79.6999 401.69L272.35 398.916ZM305.812 299.072L456.751 418.819C456.558 419.061 456.327 419.347 456.054 419.673L308.164 296.182L160.274 172.69C158.409 174.923 156.609 177.137 154.874 179.325L305.812 299.072ZM308.164 296.182L456.083 419.639C498.86 368.386 512.844 298.984 493.249 235.161L309.065 291.711L124.88 348.261C106.234 287.531 119.54 221.494 160.245 172.724L308.164 296.182ZM309.065 291.711L493.115 234.728C493.179 234.933 493.227 235.09 493.251 235.168C493.272 235.236 493.287 235.286 493.269 235.228L308.978 291.43L124.688 347.632C124.699 347.67 124.845 348.149 125.014 348.695L309.065 291.711ZM308.978 291.43L493.279 235.26C493.43 235.755 493.573 236.258 493.708 236.767L307.463 286.107L121.217 335.447C122.296 339.52 123.45 343.571 124.678 347.6L308.978 291.43ZM307.463 286.107L493.712 236.784C495.944 245.21 495.561 254.099 492.217 262.749L312.509 193.273L132.801 123.797C106.636 191.477 102.766 265.773 121.213 335.43L307.463 286.107ZM312.509 193.273L492.294 262.548C492.232 262.708 492.186 262.828 492.161 262.891C492.137 262.952 492.127 262.979 492.141 262.942L312.763 192.619L133.385 122.297C133.25 122.641 133.007 123.262 132.724 123.998L312.509 193.273ZM312.763 192.619L492.135 262.959C471.806 314.798 423.298 366.93 349.074 380.172L315.233 190.498L281.392 0.822921C204.869 14.4757 154.572 68.2678 133.392 122.28L312.763 192.619ZM315.233 190.498L349.054 380.176C322 385 301.758 381.855 291.182 378.907C281.478 376.203 283.267 374.644 297.285 384.324L406.766 225.782L516.247 67.2398C433.171 9.8715 353.275 -11.9944 281.412 0.819354L315.233 190.498ZM406.766 225.782L297.297 384.333C298.131 384.908 299.025 385.536 299.98 386.219L412.018 229.473L524.055 72.7264C521.458 70.8703 518.851 69.0379 516.235 67.2314L406.766 225.782ZM412.018 229.473L299.992 386.227C349.118 421.335 411.42 431.991 469.19 415.549L416.448 230.239L363.706 44.9282C418.443 29.3492 477.483 39.4433 524.043 72.7182L412.018 229.473ZM416.448 230.239L469.425 415.482L469.568 415.441L416.591 230.198L363.615 44.9541L363.471 44.995L416.448 230.239ZM416.591 230.198L469.272 415.526C470.495 415.178 471.734 414.845 472.988 414.526L425.539 227.79L378.09 41.0541C373.365 42.2547 368.638 43.526 363.91 44.8697L416.591 230.198ZM425.539 227.79L472.972 414.53C494.526 409.055 516.808 409.055 538.359 414.53L585.793 227.79L633.227 41.0502C549.419 19.7619 461.914 19.7621 378.106 41.05L425.539 227.79ZM585.793 227.79L538.393 414.538C539.515 414.823 540.686 415.137 541.916 415.484L594.28 230.066L646.644 44.6485C642.227 43.4011 637.745 42.1969 633.194 41.0417L585.793 227.79ZM594.28 230.066L541.409 415.34L541.592 415.392L594.463 230.119L647.334 44.8449L647.151 44.7926L594.28 230.066ZM594.463 230.119L541.936 415.49C599.844 431.899 662.25 421.22 711.506 386.11L599.673 229.218L487.84 72.3257C534.077 39.3679 592.649 29.3486 646.991 44.7472L594.463 230.119ZM599.673 229.218L711.58 386.057C712.479 385.415 713.282 384.853 713.995 384.36L604.567 225.782L495.138 67.2038C492.632 68.9332 490.174 70.6607 487.767 72.378L599.673 229.218ZM604.567 225.782L714.066 384.311C728.127 374.599 729.937 376.137 720.265 378.849C709.714 381.808 689.39 385.022 662.198 380.199L695.843 190.49L729.488 0.780072C657.378 -12.0087 577.678 10.1917 495.067 67.2527L604.567 225.782ZM695.843 190.49L662.172 380.195C587.977 367.026 539.708 315.059 519.343 263.87L698.367 192.649L877.39 121.428C856.145 68.0265 806.049 14.3691 729.515 0.784713L695.843 190.49ZM698.367 192.649L519.362 263.915C519.148 263.378 518.98 262.949 518.883 262.701C518.834 262.574 518.795 262.475 518.775 262.422C518.757 262.375 518.742 262.337 518.752 262.364C518.756 262.373 518.784 262.446 518.816 262.528C518.85 262.617 518.903 262.752 518.966 262.914C519.09 263.233 519.286 263.734 519.528 264.342L698.533 193.075L877.538 121.809C877.752 122.346 877.92 122.775 878.017 123.023C878.066 123.15 878.104 123.249 878.125 123.302C878.143 123.349 878.158 123.387 878.147 123.36C878.144 123.351 878.116 123.278 878.084 123.196C878.049 123.107 877.997 122.972 877.934 122.81C877.81 122.491 877.614 121.99 877.372 121.382L698.367 192.649ZM698.533 193.075L519.211 263.541C515.722 254.661 515.307 245.523 517.591 236.882L703.867 286.107L890.142 335.332C908.652 265.286 904.551 190.547 877.855 122.61L698.533 193.075ZM703.867 286.107L517.584 236.907C517.746 236.296 517.894 235.783 518.02 235.37L702.31 291.574L886.6 347.779C887.833 343.737 889.021 339.578 890.149 335.307L703.867 286.107ZM702.31 291.574L518.095 235.124C498.474 299.155 512.659 368.414 555.108 419.469L703.26 296.292L851.412 173.114C891.681 221.547 905.146 287.257 886.525 348.024L702.31 291.574ZM703.26 296.292L555.597 420.055L555.7 420.178L703.363 296.415L851.027 172.652L850.923 172.529L703.26 296.292ZM703.363 296.415L555.258 419.649C555.052 419.401 554.758 419.042 554.39 418.577L705.52 299.072L856.649 179.566C854.869 177.314 853.134 175.183 851.469 173.181L703.363 296.415ZM705.52 299.072L554.563 418.795C548.285 410.879 546.237 402.793 546.333 396.142L738.983 398.916L931.633 401.69C932.782 321.887 906.869 242.887 856.477 179.349L705.52 299.072ZM738.983 398.916H546.313C546.313 408.535 545.626 414.941 545.014 418.698C544.411 422.406 543.921 423.302 544.363 422.139C544.838 420.888 546.091 418.052 548.591 414.378C551.112 410.672 554.259 407.062 557.828 403.861C561.341 400.711 564.565 398.582 566.909 397.266C569.177 395.993 570.401 395.602 570.044 395.726C569.654 395.862 568.034 396.384 564.818 397.043C561.599 397.702 557.319 398.39 551.697 399.016L573.047 590.5L594.396 781.984C648.43 775.959 738.788 759.164 815.08 690.755C898.309 616.125 931.653 511.33 931.653 398.916H738.983ZM573.047 590.5L552.665 398.911C392.513 415.949 325.867 605.842 429.812 720.728L572.683 591.463L715.555 462.198C818.866 576.385 752.641 765.151 593.428 782.089L573.047 590.5ZM572.683 591.463L429.473 720.353C429.794 720.71 430.06 721.003 430.233 721.192C430.32 721.289 430.394 721.37 430.445 721.426C430.493 721.478 430.536 721.525 430.546 721.537C430.566 721.558 430.553 721.545 430.536 721.526C430.516 721.503 430.472 721.456 430.415 721.392C430.303 721.27 430.097 721.043 429.836 720.753L573.047 591.863L716.257 462.974C715.936 462.617 715.669 462.323 715.497 462.134C715.41 462.038 715.336 461.956 715.285 461.901C715.237 461.849 715.194 461.802 715.184 461.79C715.164 461.768 715.176 461.782 715.194 461.801C715.214 461.823 715.258 461.871 715.315 461.934C715.427 462.057 715.633 462.284 715.894 462.574L572.683 591.463ZM573.047 591.863L429.672 720.57C420.359 710.196 413.76 698.604 409.665 686.794L591.703 623.677L773.741 560.559C761.42 525.023 742.114 491.777 716.421 463.156L573.047 591.863ZM591.703 623.677L409.663 686.787C405.389 674.459 403.76 661.681 404.63 649.156L596.837 662.513L789.043 675.871C791.747 636.966 786.618 597.701 773.744 560.567L591.703 623.677ZM596.837 662.513H404.167V790H596.837H789.507V662.513H596.837Z" fill="white" mask="url(#path-4-inside-1_761_23)"/>
</svg>
