<svg width="364" height="263" viewBox="0 0 364 263" fill="none" xmlns="http://www.w3.org/2000/svg">
<path d="M324.855 110.693C346.646 170.24 314.047 237.992 248.571 258.431C229.602 206.595 230.906 210.159 209.115 150.612C187.324 91.0657 198.462 121.575 169.628 42.7844C242.842 31.2326 303.064 51.1465 324.855 110.693Z" fill="#3986A8"/>
<path d="M241 260H171.968C161.448 260 152.054 253.414 148.467 243.525L77 46.5L144.321 44.1379C155.158 43.7576 165.004 50.4067 168.7 60.6007L241 260Z" fill="#3986A8"/>
<path d="M119 184H31L11.0849 235.257C5.99129 248.367 15.6743 262.5 29.7389 262.5H32C46.3121 262.5 147.5 262 147.5 262L119 184Z" fill="#3986A8"/>
<path d="M79 70L117.412 178.249H32.5L79 70Z" fill="#3986A8"/>
<path d="M79 70L117.412 178.249H32.5L79 70Z" stroke="black"/>
</svg>
