<svg width="210" height="auto" viewBox="0 0 210 232" xmlns="http://www.w3.org/2000/svg">
  <!-- First path with outline -->
  <path fill-rule="evenodd" clip-rule="evenodd" 
        d="M208.687 31.859L30.0947 167.73C8.16388 127.966 0.567559 79.9975 0 51.2275V33.6181C0 31.0567 2.7788 29.5628 4.16851 29.1356C33.5617 20.2778 93.2465 2.30524 96.8378 1.28069C100.429 0.256138 103.464 0 104.534 0H104.631C105.7 0 108.735 0.256138 112.327 1.28069C115.918 2.30524 175.603 20.2778 204.996 29.1356C206.03 29.4533 207.832 30.3613 208.687 31.859Z" 
        fill="#15273F" 
        stroke="#15273F" 
        stroke-width="2"/>

  <!-- Second path with outline -->
  <path fill-rule="evenodd" clip-rule="evenodd" 
        d="M30.0938 167.952L208.686 32.0815C208.981 32.5983 209.164 33.1842 209.164 33.8406V51.45C208.202 100.223 187.038 204.172 110.081 229.786C109.013 230.213 106.49 231.067 104.951 231.067H104.212C102.673 231.067 100.15 230.213 99.0814 229.786C67.5193 219.281 45.3415 195.6 30.0938 167.952Z" 
        fill="none" 
        stroke="#15273F" 
        stroke-width="2"/>
</svg>

