<svg width="198" height="204" viewBox="0 0 198 204" fill="none" xmlns="http://www.w3.org/2000/svg">
<path d="M99 122.184C110.046 122.184 119 113.163 119 102.036C119 90.9082 110.046 81.8875 99 81.8875C87.9543 81.8875 79 90.9082 79 102.036C79 113.163 87.9543 122.184 99 122.184Z" fill="#07B6D5"/>
<path d="M98.8599 144.015C151.25 144.015 193.72 125.224 193.72 102.044C193.72 78.8645 151.25 60.0737 98.8599 60.0737C46.4702 60.0737 4 78.8645 4 102.044C4 125.224 46.4702 144.015 98.8599 144.015Z" stroke="#07B6D5" stroke-width="8"/>
<path d="M61.8921 123.03C88.0869 167.639 125.873 194.406 146.29 182.816C166.707 171.227 162.023 125.668 135.828 81.0592C109.633 36.45 71.8469 9.68251 51.4301 21.2723C31.0133 32.8621 35.6972 78.4204 61.8921 123.03Z" stroke="#07B6D5" stroke-width="8"/>
<path d="M61.8919 81.0585C35.6971 125.668 31.0131 171.226 51.43 182.816C71.8468 194.406 109.633 167.638 135.828 123.029C162.023 78.4197 166.707 32.8614 146.29 21.2716C125.873 9.68182 88.0868 36.4493 61.8919 81.0585Z" stroke="#07B6D5" stroke-width="8"/>
</svg>
